<?xml version="1.0" encoding="UTF-8" standalone="no"?>
<!-- Created with Inkscape (http://www.inkscape.org/) -->
<svg
   xmlns:dc="http://purl.org/dc/elements/1.1/"
   xmlns:cc="http://creativecommons.org/ns#"
   xmlns:rdf="http://www.w3.org/1999/02/22-rdf-syntax-ns#"
   xmlns:svg="http://www.w3.org/2000/svg"
   xmlns="http://www.w3.org/2000/svg"
   xmlns:sodipodi="http://sodipodi.sourceforge.net/DTD/sodipodi-0.dtd"
   xmlns:inkscape="http://www.inkscape.org/namespaces/inkscape"
   width="744.09448819"
   height="1052.3622047"
   id="svg2"
   sodipodi:version="0.32"
   inkscape:version="0.46"
   sodipodi:docname="csrg.svg"
   inkscape:output_extension="org.inkscape.output.svg.inkscape"
   inkscape:export-filename="/home/cmaureir/csrg.png"
   inkscape:export-xdpi="90"
   inkscape:export-ydpi="90">
  <sodipodi:namedview
     id="base"
     pagecolor="#ffffff"
     bordercolor="#666666"
     borderopacity="1.0"
     gridtolerance="10000"
     guidetolerance="10"
     objecttolerance="10"
     inkscape:pageopacity="0.0"
     inkscape:pageshadow="2"
     inkscape:zoom="0.98994949"
     inkscape:cx="303.44667"
     inkscape:cy="891.42858"
     inkscape:document-units="px"
     inkscape:current-layer="layer1"
     showgrid="false"
     inkscape:window-width="843"
     inkscape:window-height="699"
     inkscape:window-x="385"
     inkscape:window-y="0" />
  <defs
     id="defs4">
    <inkscape:perspective
       id="perspective10"
       inkscape:persp3d-origin="372.04724 : 350.78739 : 1"
       inkscape:vp_z="744.09448 : 526.18109 : 1"
       inkscape:vp_y="0 : 1000 : 0"
       inkscape:vp_x="0 : 526.18109 : 1"
       sodipodi:type="inkscape:persp3d" />
  </defs>
  <metadata
     id="metadata7">
    <rdf:RDF>
      <cc:Work
         rdf:about="">
        <dc:format>image/svg+xml</dc:format>
        <dc:type
           rdf:resource="http://purl.org/dc/dcmitype/StillImage" />
      </cc:Work>
    </rdf:RDF>
  </metadata>
  <g
     id="layer1"
     inkscape:groupmode="layer"
     inkscape:label="Layer 1">
    <path
       id="text3205"
       d="M 149.22671,177.21235 C 149.20539,174.34087 148.7812,172.23927 147.94661,170.89659 C 147.11777,169.53074 145.70373,168.62485 143.66949,168.18181 C 141.57674,167.72605 140.05104,168.02145 139.12945,169.08761 C 138.19633,170.15591 137.7383,172.24913 137.76403,175.35619 C 137.78999,178.49504 138.28379,180.76712 139.23628,182.16008 C 140.17675,183.53552 141.70935,184.32927 143.7976,184.54942 C 145.81141,184.76176 147.21375,184.30732 148.03893,183.20019 C 148.8546,182.10581 149.24817,180.11331 149.22671,177.21235 M 157.58362,178.60889 C 157.60783,182.18436 156.5298,184.81964 154.29467,186.55895 C 151.98304,188.34762 148.55041,189.09273 143.83033,188.73068 C 138.76475,188.34214 134.60083,186.88664 131.5183,184.30988 C 128.30992,181.61625 126.63601,178.01971 126.59568,173.60122 C 126.55518,169.16788 128.17017,166.09676 131.34419,164.44043 C 134.39569,162.83664 138.55429,162.71789 143.63653,163.97143 C 148.37153,165.13936 151.82928,167.00786 154.17524,169.56555 C 156.4421,172.02744 157.55931,175.02184 157.58362,178.60889 M 167.97543,182.57637 C 167.97543,182.57637 160.50182,173.78325 160.50182,173.78325 C 160.50182,173.78325 167.49706,175.20153 167.49706,175.20153 C 167.49706,175.20153 171.39159,180.2843 171.39159,180.2843 C 171.39159,180.2843 175.04456,176.73179 175.04456,176.73179 C 175.04456,176.73179 180.58259,177.85461 180.58259,177.85461 C 180.58259,177.85461 174.69686,183.51059 174.69686,183.51059 C 174.69686,183.51059 180.92652,191.23167 180.92652,191.23167 C 180.92652,191.23167 175.42671,190.79231 175.42671,190.79231 C 175.42671,190.79231 171.42371,185.89872 171.42371,185.89872 C 171.42371,185.89872 167.23765,190.13814 167.23765,190.13814 C 167.23765,190.13814 160.21467,189.57712 160.21467,189.57712 C 160.21467,189.57712 167.97543,182.57637 167.97543,182.57637 M 197.34887,191.71728 C 196.64245,192.02682 195.89397,192.24649 195.10169,192.37436 C 194.29583,192.50438 193.43968,192.5359 192.5309,192.46619 C 189.71349,192.25007 187.3587,191.2949 185.5441,189.5651 C 183.66345,187.76468 182.69046,185.44805 182.67695,182.66399 C 182.66335,179.87094 183.61604,177.86305 185.48421,176.67353 C 187.28758,175.51781 189.64021,175.31845 192.46321,176.01473 C 193.3738,176.23933 194.23235,176.54844 195.04124,176.94013 C 195.83644,177.32522 196.58835,177.78821 197.29872,178.32765 C 197.29872,178.32765 197.31039,181.44795 197.31039,181.44795 C 196.5931,180.80931 195.87526,180.29606 195.15715,179.91136 C 194.42788,179.52069 193.64826,179.23433 192.81606,179.05454 C 191.28851,178.72456 190.05487,178.93702 189.13927,179.71033 C 188.20667,180.49801 187.7377,181.7594 187.74542,183.48304 C 187.75309,185.19886 188.23378,186.60905 189.17417,187.6985 C 190.09713,188.7678 191.33328,189.37885 192.85892,189.54257 C 193.69009,189.63175 194.46783,189.59739 195.19439,189.44248 C 195.90992,189.28992 196.62423,189.00871 197.33719,188.60187 C 197.33719,188.60187 197.34887,191.71728 197.34887,191.71728 M 206.3024,181.96799 C 205.34092,181.76029 204.581,181.99874 204.03431,182.69361 C 203.4805,183.39746 203.20336,184.49593 203.20825,185.98186 C 203.21314,187.46117 203.4977,188.64656 204.0564,189.52953 C 204.60781,190.40101 205.36949,190.88496 206.32999,190.98802 C 207.27401,191.08931 207.98891,190.77987 208.48617,190.06801 C 208.97742,189.36477 209.21887,188.32846 209.21498,186.95253 C 209.21105,185.57047 208.96339,184.45155 208.46742,183.58804 C 207.96524,182.71372 207.24736,182.17214 206.3024,181.96799 M 206.29464,179.42629 C 208.19473,179.895 209.62514,180.84789 210.63083,182.27327 C 211.61131,183.66295 212.0951,185.36967 212.10047,187.41885 C 212.10582,189.46175 211.63083,191.00922 210.65761,192.08146 C 209.65973,193.18083 208.23491,193.67073 206.33777,193.52523 C 204.35527,193.37316 202.72802,192.59695 201.50246,191.17241 C 200.24778,189.70749 199.60257,187.77225 199.59409,185.39781 C 199.58558,183.01594 200.21808,181.28214 201.46493,180.21971 C 202.6833,179.18798 204.30889,178.93654 206.29464,179.42629 M 214.06488,181.56567 C 214.06488,181.56567 220.39755,183.10887 220.39755,183.10887 C 220.39755,183.10887 220.40192,185.30852 220.40192,185.30852 C 220.40192,185.30852 216.54816,184.4925 216.54816,184.4925 C 216.54816,184.4925 216.55321,186.71091 216.55321,186.71091 C 216.55321,186.71091 220.18782,187.36966 220.18782,187.36966 C 220.18782,187.36966 220.19223,189.57485 220.19223,189.57485 C 220.19223,189.57485 216.55848,189.03227 216.55848,189.03227 C 216.55848,189.03227 216.57,194.07899 216.57,194.07899 C 216.57,194.07899 214.09529,193.8813 214.09529,193.8813 C 214.09529,193.8813 214.06488,181.56567 214.06488,181.56567 M 222.35516,183.58594 C 222.35516,183.58594 227.41502,184.81896 227.41502,184.81896 C 227.41502,184.81896 227.41788,186.79415 227.41788,186.79415 C 227.41788,186.79415 224.32733,186.13972 224.32733,186.13972 C 224.32733,186.13972 224.33067,188.12051 224.33067,188.12051 C 224.33067,188.12051 227.24462,188.64865 227.24462,188.64865 C 227.24462,188.64865 227.24754,190.62828 227.24754,190.62828 C 227.24754,190.62828 224.33418,190.19329 224.33418,190.19329 C 224.33418,190.19329 224.34178,194.69982 224.34178,194.69982 C 224.34178,194.69982 222.37527,194.54273 222.37527,194.54273 C 222.37527,194.54273 222.35516,183.58594 222.35516,183.58594 M 228.99844,185.20484 C 228.99844,185.20484 233.13408,186.21264 233.13408,186.21264 C 233.13408,186.21264 233.13589,188.00493 233.13589,188.00493 C 233.13589,188.00493 230.60237,187.46846 230.60237,187.46846 C 230.60237,187.46846 230.60455,189.25759 230.60455,189.25759 C 230.60455,189.25759 232.99273,189.69043 232.99273,189.69043 C 232.99273,189.69043 232.99457,191.4864 232.99457,191.4864 C 232.99457,191.4864 230.60679,191.12987 230.60679,191.12987 C 230.60679,191.12987 230.60946,193.32958 230.60946,193.32958 C 230.60946,193.32958 233.22298,193.62177 233.22298,193.62177 C 233.22298,193.62177 233.22475,195.40943 233.22475,195.40943 C 233.22475,195.40943 229.01157,195.07286 229.01157,195.07286 C 229.01157,195.07286 228.99844,185.20484 228.99844,185.20484 M 234.44116,186.53118 C 234.44116,186.53118 237.88456,187.3703 237.88456,187.3703 C 237.88456,187.3703 237.88565,189.01068 237.88565,189.01068 C 237.88565,189.01068 235.77106,188.56293 235.77106,188.56293 C 235.77106,188.56293 235.77237,190.19422 235.77237,190.19422 C 235.77237,190.19422 237.76528,190.5554 237.76528,190.5554 C 237.76528,190.5554 237.76638,192.19888 237.76638,192.19888 C 237.76638,192.19888 235.77377,191.90136 235.77377,191.90136 C 235.77377,191.90136 235.7754,193.90713 235.7754,193.90713 C 235.7754,193.90713 237.95717,194.15103 237.95717,194.15103 C 237.95717,194.15103 237.95823,195.78756 237.95823,195.78756 C 237.95823,195.78756 234.44937,195.50726 234.44937,195.50726 C 234.44937,195.50726 234.44116,186.53118 234.44116,186.53118 M 149.51754,216.46624 C 149.49634,213.61193 149.07432,211.6371 148.24399,210.53294 C 147.4194,209.40415 146.0127,208.89712 143.98917,209.02445 C 141.90761,209.15547 140.39018,209.87606 139.4736,211.19539 C 138.54561,212.52001 138.0901,214.73251 138.11568,217.8195 C 138.14148,220.93807 138.63255,223.06286 139.57976,224.18419 C 140.51507,225.29144 142.03937,225.65411 144.11646,225.29047 C 146.11972,224.93976 147.51481,224.09557 148.33577,222.7624 C 149.14726,221.44452 149.53886,219.34988 149.51754,216.46624 M 157.83362,215.52238 C 157.85768,219.07779 156.78474,222.00434 154.56033,224.36132 C 152.25999,226.78858 148.84456,228.48902 144.14901,229.44578 C 139.11076,230.47235 134.97018,230.18472 131.90537,228.47897 C 128.71589,226.69219 127.05201,223.5785 127.01196,219.19063 C 126.97176,214.78804 128.57709,211.27924 131.73241,208.74322 C 134.76636,206.29345 138.90167,205.01271 143.95641,204.84023 C 148.66678,204.67955 152.10715,205.57388 154.44158,207.46583 C 156.69754,209.28463 157.80945,211.95549 157.83362,215.52238 M 168.17882,216.57128 C 168.17882,216.57128 160.73828,209.89888 160.73828,209.89888 C 160.73828,209.89888 167.70251,209.35607 167.70251,209.35607 C 167.70251,209.35607 171.58065,213.33221 171.58065,213.33221 C 171.58065,213.33221 175.21887,208.77023 175.21887,208.77023 C 175.21887,208.77023 180.73561,208.34025 180.73561,208.34025 C 180.73561,208.34025 174.87251,215.62349 174.87251,215.62349 C 174.87251,215.62349 181.07819,221.57786 181.07819,221.57786 C 181.07819,221.57786 175.59945,222.67681 175.59945,222.67681 C 175.59945,222.67681 171.61261,218.91838 171.61261,218.91838 C 171.61261,218.91838 167.44411,224.31264 167.44411,224.31264 C 167.44411,224.31264 160.45237,225.71506 160.45237,225.71506 C 160.45237,225.71506 168.17882,216.57128 168.17882,216.57128 M 184.21585,220.56918 C 184.21585,220.56918 184.20077,217.39868 184.20077,217.39868 C 184.99226,217.59386 185.73793,217.71267 186.4395,217.75685 C 187.1316,217.79301 187.80599,217.75245 188.46327,217.63665 C 189.81456,217.3986 190.84106,216.87665 191.5617,216.07496 C 192.27186,215.27784 192.68252,214.21187 192.80124,212.87081 C 192.30418,213.29156 191.76812,213.63253 191.1918,213.89275 C 190.60861,214.15608 189.96788,214.33937 189.26745,214.44137 C 187.43982,214.70752 185.91155,214.42851 184.71258,213.58246 C 183.4941,212.70771 182.87,211.41661 182.8618,209.72423 C 182.85268,207.85284 183.53351,206.31191 184.87818,205.12491 C 186.19745,203.96734 187.91498,203.36267 189.98982,203.29141 C 192.19606,203.21568 193.8402,203.84561 194.97431,205.15484 C 196.08165,206.43324 196.63022,208.27808 196.63948,210.7112 C 196.64898,213.21098 196.02373,215.28086 194.73773,216.95542 C 193.41585,218.66964 191.53608,219.79032 189.03368,220.30019 C 188.20017,220.47002 187.38902,220.57584 186.60166,220.61599 C 185.80202,220.66432 185.00661,220.64919 184.21585,220.56918 M 190.00252,211.61771 C 190.77649,211.52618 191.35,211.2261 191.72985,210.71935 C 192.10671,210.20942 192.29216,209.49246 192.28833,208.56548 C 192.28452,207.64544 192.09324,206.96553 191.7123,206.52322 C 191.32833,206.0774 190.75246,205.87648 189.97797,205.92359 C 189.19118,205.97149 188.59194,206.25053 188.18725,206.7632 C 187.77925,207.28001 187.57622,208.02239 187.58056,208.98709 C 187.58491,209.95905 187.79445,210.66786 188.20659,211.11088 C 188.61535,211.543 189.21628,211.7107 190.00252,211.61771 M 199.71433,203.20272 C 199.71433,203.20272 208.54625,202.87526 208.54625,202.87526 C 208.54625,202.87526 208.55369,205.4473 208.55369,205.4473 C 208.55369,205.4473 203.21272,205.81561 203.21272,205.81561 C 203.21272,205.81561 203.22136,208.43428 203.22136,208.43428 C 203.22136,208.43428 208.26104,207.93329 208.26104,207.93329 C 208.26104,207.93329 208.26855,210.51288 208.26855,210.51288 C 208.26855,210.51288 203.23043,211.17431 203.23043,211.17431 C 203.23043,211.17431 203.24104,214.39305 203.24104,214.39305 C 203.24104,214.39305 208.74496,213.46439 208.74496,213.46439 C 208.74496,213.46439 208.75235,216.0269 208.75235,216.0269 C 208.75235,216.0269 199.76649,217.8293 199.76649,217.8293 C 199.76649,217.8293 199.71433,203.20272 199.71433,203.20272 M 216.35896,208.07807 C 216.98304,208.21364 217.4496,208.51623 217.7646,208.98449 C 218.08076,209.4429 218.23864,210.05657 218.24031,210.82849 C 218.24278,211.97843 217.90714,212.91536 217.22379,213.6498 C 216.52723,214.39312 215.48522,214.91051 214.06818,215.19924 C 213.55523,215.30375 213.03281,215.35738 212.5007,215.35905 C 211.96578,215.36544 211.42795,215.31706 210.88724,215.21278 C 210.88724,215.21278 210.88032,212.6666 210.88032,212.6666 C 211.39769,212.88897 211.90339,213.0359 212.39769,213.10885 C 212.89031,213.17448 213.36742,213.16618 213.8295,213.08527 C 214.50559,212.96692 215.01411,212.73433 215.3617,212.38839 C 215.7103,212.04498 215.88274,211.60957 215.88152,211.07968 C 215.88023,210.53372 215.70159,210.14633 215.34298,209.91589 C 214.98515,209.67722 214.44913,209.60323 213.72722,209.69704 C 213.72722,209.69704 212.67996,209.83315 212.67996,209.83315 C 212.67996,209.83315 212.6746,207.75448 212.6746,207.75448 C 212.6746,207.75448 213.77575,207.64127 213.77575,207.64127 C 214.41784,207.57527 214.88873,207.4047 215.19473,207.13046 C 215.49816,206.8531 215.64838,206.46545 215.6472,205.96578 C 215.64611,205.5037 215.49841,205.1569 215.20234,204.92392 C 214.90389,204.68912 214.47855,204.58831 213.92206,204.62331 C 213.50596,204.64952 213.08086,204.73467 212.64649,204.87979 C 212.20715,205.0266 211.76525,205.23151 211.32078,205.49547 C 211.32078,205.49547 211.31432,203.08854 211.31432,203.08854 C 211.85312,202.88551 212.38,202.73033 212.89528,202.62201 C 213.40372,202.51515 213.89664,202.45402 214.37451,202.4377 C 215.63243,202.39481 216.54595,202.61851 217.13915,203.10174 C 217.72668,203.57174 218.01795,204.30314 218.02011,205.3016 C 218.02161,205.98277 217.8853,206.55452 217.6097,207.01961 C 217.33192,207.48305 216.91659,207.83585 216.35896,208.07807 M 219.9535,202.45233 C 219.9535,202.45233 225.77423,202.2365 225.77423,202.2365 C 225.77423,202.2365 225.77662,203.74518 225.77662,203.74518 C 225.77662,203.74518 222.91013,213.18709 222.91013,213.18709 C 222.91013,213.18709 220.91143,213.588 220.91143,213.588 C 220.91143,213.588 223.79343,204.33903 223.79343,204.33903 C 223.79343,204.33903 219.95788,204.60017 219.95788,204.60017 C 219.95788,204.60017 219.9535,202.45233 219.9535,202.45233 M 227.16031,202.18514 C 227.16031,202.18514 231.87422,202.01034 231.87422,202.01034 C 231.87422,202.01034 231.87577,203.37403 231.87577,203.37403 C 231.87577,203.37403 229.54121,211.85702 229.54121,211.85702 C 229.54121,211.85702 227.92704,212.18078 227.92704,212.18078 C 227.92704,212.18078 230.2602,203.89875 230.2602,203.89875 C 230.2602,203.89875 227.16315,204.10961 227.16315,204.10961 C 227.16315,204.10961 227.16031,202.18514 227.16031,202.18514 M 233.26988,210.90696 C 233.26988,210.90696 233.26818,209.21635 233.26818,209.21635 C 233.49343,209.35373 233.70714,209.44913 233.90958,209.50309 C 234.11055,209.55263 234.30766,209.56015 234.50098,209.52609 C 234.90209,209.45543 235.21037,209.21382 235.42889,208.80301 C 235.64565,208.39159 235.77216,207.81739 235.80963,207.07863 C 235.65713,207.29471 235.49354,207.46447 235.31866,207.58753 C 235.14263,207.71141 234.95038,207.78875 234.74158,207.81915 C 234.203,207.89759 233.75982,207.69283 233.41684,207.19918 C 233.07208,206.69492 232.89763,205.99214 232.89669,205.09546 C 232.89568,204.10404 233.0884,203.29819 233.47098,202.68434 C 233.8508,202.07867 234.3513,201.76816 234.96587,201.74706 C 235.63226,201.72419 236.13721,202.08891 236.48935,202.83324 C 236.83679,203.56772 237.00929,204.61776 237.0103,205.99043 C 237.01128,207.40095 236.81136,208.54324 236.40586,209.42763 C 235.99406,210.3218 235.41812,210.84904 234.66746,211.00198 C 234.42122,211.05216 234.18341,211.06848 233.95425,211.05049 C 233.7232,211.03641 233.49505,210.98868 233.26988,210.90696 M 234.96292,206.30116 C 235.19525,206.27369 235.36868,206.12538 235.48426,205.85688 C 235.59938,205.58564 235.65652,205.19422 235.65612,204.68174 C 235.65568,204.17314 235.59788,203.7939 235.48233,203.54323 C 235.36626,203.29147 235.19258,203.1722 234.96022,203.18633 C 234.72579,203.2006 234.5482,203.34322 234.42852,203.61496 C 234.30834,203.88789 234.2483,204.28582 234.24878,204.80776 C 234.24927,205.33371 234.31003,205.72271 234.43068,205.97397 C 234.55082,206.22015 234.72859,206.32888 234.96292,206.30116 M 239.79248,204.84745 C 239.96636,204.82998 240.09732,204.74506 240.18614,204.59303 C 240.27458,204.44155 240.31865,204.22668 240.3185,203.94806 C 240.31837,203.67302 240.27412,203.46728 240.18551,203.33049 C 240.09657,203.18961 239.96552,203.12465 239.79161,203.13609 C 239.79161,203.13609 239.17121,203.17689 239.17121,203.17689 C 239.17121,203.17689 239.17217,204.90971 239.17217,204.90971 C 239.17217,204.90971 239.79248,204.84745 239.79248,204.84745 M 239.83162,208.37606 C 240.05264,208.33805 240.21707,208.22214 240.32603,208.0287 C 240.43639,207.83579 240.49128,207.56358 240.49111,207.21137 C 240.49097,206.86626 240.43675,206.61577 240.32811,206.45938 C 240.21899,206.29873 240.05351,206.23241 239.83054,206.2612 C 239.83054,206.2612 239.17297,206.34608 239.17297,206.34608 C 239.17297,206.34608 239.17415,208.48907 239.17415,208.48907 C 239.17415,208.48907 239.83162,208.37606 239.83162,208.37606 M 240.83724,205.35742 C 241.06402,205.45839 241.2382,205.67126 241.36089,205.99548 C 241.48295,206.31804 241.54382,206.72414 241.544,207.21495 C 241.54427,207.96678 241.41394,208.55078 241.15083,208.97041 C 240.88483,209.39469 240.47452,209.66398 239.91258,209.77669 C 239.91258,209.77669 238.01387,210.15754 238.01387,210.15754 C 238.01387,210.15754 238.0085,201.78292 238.0085,201.78292 C 238.0085,201.78292 239.73327,201.71896 239.73327,201.71896 C 240.32402,201.69707 240.74274,201.84803 240.99797,202.16889 C 241.25232,202.48628 241.37859,203.00548 241.37888,203.7289 C 241.37901,204.10982 241.33329,204.43917 241.24144,204.71774 C 241.14922,204.99387 241.01473,205.20709 240.83724,205.35742 M 242.45785,209.09719 C 242.45785,209.09719 242.45743,207.68398 242.45743,207.68398 C 242.61482,207.80405 242.76432,207.88886 242.90618,207.93882 C 243.04714,207.98509 243.18558,207.99611 243.32153,207.97215 C 243.60411,207.92238 243.82182,207.72659 243.97648,207.38606 C 244.13011,207.04455 244.22,206.56373 244.2469,205.94233 C 244.13874,206.12149 244.02283,206.26129 243.89907,206.36149 C 243.77462,206.46224 243.63888,206.52349 243.49168,206.54492 C 243.11278,206.6001 242.80201,206.41995 242.56221,206.00055 C 242.32167,205.57315 242.20033,204.98348 242.20009,204.23481 C 242.19981,203.40705 242.33458,202.73587 242.60209,202.22573 C 242.86827,201.72129 243.21971,201.46366 243.65249,201.44879 C 244.12354,201.43262 244.48155,201.74234 244.73164,202.37232 C 244.9789,202.99525 245.10157,203.88421 245.10171,205.04427 C 245.10179,206.23635 244.95863,207.19741 244.66935,207.93473 C 244.37631,208.67839 243.96798,209.10692 243.43807,209.21491 C 243.26473,209.25021 243.0976,209.25734 242.93678,209.23596 C 242.77486,209.21782 242.6152,209.17167 242.45785,209.09719 M 243.64842,205.2741 C 243.81245,205.25473 243.93506,205.13273 244.01696,204.90865 C 244.09855,204.68207 244.1392,204.35343 244.13915,203.92205 C 244.13907,203.49395 244.09829,203.17419 244.01661,202.96219 C 243.93462,202.74941 243.81191,202.64768 243.64786,202.65767 C 243.4826,202.66771 243.35749,202.78592 243.27318,203.0128 C 243.18855,203.24051 243.14619,203.57345 243.1463,204.01096 C 243.14641,204.45182 243.18894,204.77877 243.27366,204.99126 C 243.35805,205.1996 243.4832,205.29365 243.64842,205.2741 M 149.80663,255.48595 C 149.78557,252.64865 149.36568,250.79912 148.5396,249.93064 C 147.71923,249.0361 146.3198,248.92309 144.30685,249.61378 C 142.23637,250.32425 140.72713,251.46467 139.81557,253.03391 C 138.89264,254.61155 138.43963,256.94176 138.46506,260.00885 C 138.4907,263.10735 138.97902,265.0867 139.92104,265.93981 C 140.85127,266.78228 142.36732,266.71932 144.43338,265.7791 C 146.42615,264.87227 147.81402,263.6431 148.63079,262.08661 C 149.43819,260.54795 149.82782,258.35242 149.80663,255.48595 M 158.08221,252.22872 C 158.10613,255.76421 157.03825,258.97872 154.82445,261.94629 C 152.53533,265.00473 149.13699,267.6492 144.4657,269.90873 C 139.45458,272.33263 135.33707,273.19773 132.28984,272.3515 C 129.11907,271.45936 127.46514,268.82196 127.42537,264.46443 C 127.38544,260.09226 128.98122,256.15186 132.11804,252.74814 C 135.13461,249.46366 139.24681,247.036 144.27431,245.45547 C 148.96028,243.98234 152.38338,243.91402 154.70638,245.14788 C 156.95152,246.3309 158.05818,248.68183 158.08221,252.22872 M 168.38111,250.39039 C 168.38111,250.39039 160.97345,245.81627 160.97345,245.81627 C 160.97345,245.81627 167.9069,243.33327 167.9069,243.33327 C 167.9069,243.33327 171.76875,246.21401 171.76875,246.21401 C 171.76875,246.21401 175.39234,240.65258 175.39234,240.65258 C 175.39234,240.65258 180.8879,238.68452 180.8879,238.68452 C 180.8879,238.68452 175.04731,247.5795 175.04731,247.5795 C 175.04731,247.5795 181.22916,251.78387 181.22916,251.78387 C 181.22916,251.78387 175.77132,254.40655 175.77132,254.40655 C 175.77132,254.40655 171.80053,251.77213 171.80053,251.77213 C 171.80053,251.77213 167.64954,258.30936 167.64954,258.30936 C 167.64954,258.30936 160.68876,261.65426 160.68876,261.65426 C 160.68876,261.65426 168.38111,250.39039 168.38111,250.39039 M 188.84938,234.93326 C 188.84938,234.93326 188.89335,244.91042 188.89335,244.91042 C 188.89335,244.91042 190.5001,244.18943 190.5001,244.18943 C 192.27031,243.39506 193.57672,242.40113 194.45435,241.20312 C 195.32295,240.02389 195.74837,238.68402 195.7425,237.16715 C 195.73663,235.65677 195.30543,234.66475 194.43698,234.18475 C 193.55226,233.69583 192.23768,233.75024 190.45804,234.3716 C 190.45804,234.3716 188.84938,234.93326 188.84938,234.93326 M 184.05524,233.25991 C 184.05524,233.25991 189.08355,231.66426 189.08355,231.66426 C 191.68712,230.83811 193.53899,230.42142 194.71724,230.38309 C 195.87356,230.33671 196.84249,230.57304 197.63479,231.08449 C 198.32256,231.51965 198.82781,232.11162 199.1565,232.86118 C 199.4827,233.60528 199.6469,234.51979 199.65082,235.60857 C 199.65474,236.71023 199.49764,237.76218 199.17787,238.76988 C 198.85576,239.77818 198.35663,240.76982 197.67461,241.75033 C 196.88254,242.89291 195.91242,243.90555 194.75323,244.78958 C 193.56492,245.68886 191.72391,246.74075 189.15516,247.97513 C 189.15516,247.97513 184.13701,250.38654 184.13701,250.38654 C 184.13701,250.38654 184.05524,233.25991 184.05524,233.25991 M 202.32587,227.46211 C 202.32587,227.46211 210.66712,224.81517 210.66712,224.81517 C 210.66712,224.81517 210.67397,227.31314 210.67397,227.31314 C 210.67397,227.31314 205.62374,229.07645 205.62374,229.07645 C 205.62374,229.07645 205.63168,231.61487 205.63168,231.61487 C 205.63168,231.61487 210.39659,229.80636 210.39659,229.80636 C 210.39659,229.80636 210.40347,232.31147 210.40347,232.31147 C 210.40347,232.31147 205.63998,234.27098 205.63998,234.27098 C 205.63998,234.27098 205.6497,237.39119 205.6497,237.39119 C 205.6497,237.39119 210.85451,235.05559 210.85451,235.05559 C 210.85451,235.05559 210.8613,237.54456 210.8613,237.54456 C 210.8613,237.54456 202.37365,241.62318 202.37365,241.62318 C 202.37365,241.62318 202.32587,227.46211 202.32587,227.46211 M 218.91884,231.5828 C 218.91884,231.5828 215.23768,233.24233 215.23768,233.24233 C 215.23768,233.24233 214.62668,235.73516 214.62668,235.73516 C 214.62668,235.73516 212.00638,236.9943 212.00638,236.9943 C 212.00638,236.9943 215.66869,223.22804 215.66869,223.22804 C 215.66869,223.22804 218.4778,222.33665 218.4778,222.33665 C 218.4778,222.33665 221.61072,232.37908 221.61072,232.37908 C 221.61072,232.37908 219.4651,233.41012 219.4651,233.41012 C 219.4651,233.41012 218.91884,231.5828 218.91884,231.5828 M 215.84514,230.74679 C 215.84514,230.74679 218.34604,229.69506 218.34604,229.69506 C 218.34604,229.69506 217.10982,225.53137 217.10982,225.53137 C 217.10982,225.53137 215.84514,230.74679 215.84514,230.74679 M 224.58581,222.45578 C 224.58581,222.45578 224.59654,228.889 224.59654,228.889 C 224.59654,228.889 225.26713,228.58809 225.26713,228.58809 C 226.01488,228.25255 226.57312,227.73498 226.9515,227.03589 C 227.32835,226.34388 227.51434,225.49982 227.51291,224.49743 C 227.51146,223.49937 227.3247,222.80824 226.94919,222.42062 C 226.56908,222.02829 226.00817,221.95916 225.25683,222.2215 C 225.25683,222.2215 224.58581,222.45578 224.58581,222.45578 M 222.63326,221.01799 C 222.63326,221.01799 224.6854,220.36679 224.6854,220.36679 C 225.77703,220.02041 226.56582,219.88204 227.07304,219.94226 C 227.57506,219.99606 227.99875,220.22396 228.34725,220.62314 C 228.65139,220.96561 228.87564,221.40018 229.02168,221.92747 C 229.16699,222.45222 229.23987,223.07856 229.24083,223.80835 C 229.2418,224.54681 229.17067,225.23693 229.02693,225.88105 C 228.88252,226.52384 228.65978,227.13628 228.35704,227.7204 C 228.00734,228.3977 227.582,228.96629 227.07799,229.42589 C 226.56562,229.8885 225.78075,230.37522 224.70293,230.89317 C 224.70293,230.89317 222.65302,231.87822 222.65302,231.87822 C 222.65302,231.87822 222.63326,221.01799 222.63326,221.01799 M 232.7939,221.36101 C 233.02014,221.27491 233.19041,221.12843 233.30571,220.92167 C 233.42053,220.71576 233.47758,220.45467 233.47728,220.13777 C 233.47698,219.82493 233.41941,219.60749 233.30426,219.48509 C 233.18862,219.35812 233.01816,219.33333 232.79186,219.41161 C 232.79186,219.41161 231.98268,219.69157 231.98268,219.69157 C 231.98268,219.69157 231.98487,221.66887 231.98487,221.66887 C 231.98487,221.66887 232.7939,221.36101 232.7939,221.36101 M 232.84671,225.36552 C 233.1342,225.23561 233.34781,225.03933 233.48919,224.77669 C 233.63229,224.51432 233.70334,224.18345 233.70295,223.78305 C 233.70257,223.39074 233.63212,223.12683 233.49108,222.99081 C 233.34928,222.85005 233.13423,222.83828 232.84422,222.95694 C 232.84422,222.95694 231.98667,223.30782 231.98667,223.30782 C 231.98667,223.30782 231.98938,225.75297 231.98938,225.75297 C 231.98938,225.75297 232.84671,225.36552 232.84671,225.36552 M 234.15041,221.54335 C 234.44381,221.57174 234.66894,221.74706 234.82748,222.06812 C 234.98509,222.38732 235.0638,222.82439 235.06427,223.3807 C 235.06503,224.23283 234.89724,224.94556 234.55777,225.52431 C 234.21407,226.11032 233.6827,226.57805 232.9528,226.9288 C 232.9528,226.9288 230.46929,228.1222 230.46929,228.1222 C 230.46929,228.1222 230.4576,218.53511 230.4576,218.53511 C 230.4576,218.53511 232.71517,217.8187 232.71517,217.8187 C 233.48328,217.57498 234.02628,217.59187 234.3567,217.86199 C 234.68552,218.1281 234.84882,218.67021 234.84954,219.49061 C 234.84992,219.92257 234.7911,220.31335 234.67264,220.66398 C 234.55369,221.01218 234.37994,221.30519 234.15041,221.54335 M 236.17741,216.72004 C 236.17741,216.72004 239.40692,215.69522 239.40692,215.69522 C 239.40692,215.69522 239.40777,217.28063 239.40777,217.28063 C 239.40777,217.28063 237.42292,217.97366 237.42292,217.97366 C 237.42292,217.97366 237.424,219.54811 237.424,219.54811 C 237.424,219.54811 239.29451,218.83816 239.29451,218.83816 C 239.29451,218.83816 239.29537,220.42645 239.29537,220.42645 C 239.29537,220.42645 237.42513,221.19579 237.42513,221.19579 C 237.42513,221.19579 237.42647,223.13172 237.42647,223.13172 C 237.42647,223.13172 239.47454,222.21268 239.47454,222.21268 C 239.47454,222.21268 239.47539,223.79446 239.47539,223.79446 C 239.47539,223.79446 236.1842,225.37599 236.1842,225.37599 C 236.1842,225.37599 236.17741,216.72004 236.17741,216.72004 M 240.4389,215.36776 C 240.4389,215.36776 243.18387,214.4967 243.18387,214.4967 C 243.18387,214.4967 243.18422,215.96207 243.18422,215.96207 C 243.18422,215.96207 241.49394,216.55224 241.49394,216.55224 C 241.49394,216.55224 241.49449,218.00317 241.49449,218.00317 C 241.49449,218.00317 243.08716,217.39867 243.08716,217.39867 C 243.08716,217.39867 243.08754,218.86651 243.08754,218.86651 C 243.08754,218.86651 241.49508,219.5216 241.49508,219.5216 C 241.49508,219.5216 241.49574,221.30568 241.49574,221.30568 C 241.49574,221.30568 243.24013,220.5229 243.24013,220.5229 C 243.24013,220.5229 243.24048,221.98519 243.24048,221.98519 C 243.24048,221.98519 240.44254,223.32971 240.44254,223.32971 C 240.44254,223.32971 240.4389,215.36776 240.4389,215.36776 M 244.06669,214.21654 C 244.06669,214.21654 246.42856,213.46706 246.42856,213.46706 C 246.42856,213.46706 246.42856,214.82931 246.42856,214.82931 C 246.42856,214.82931 244.97183,215.33793 244.97183,215.33793 C 244.97183,215.33793 244.97199,216.68329 244.97199,216.68329 C 244.97199,216.68329 246.3444,216.16239 246.3444,216.16239 C 246.3444,216.16239 246.34441,217.52676 246.34441,217.52676 C 246.34441,217.52676 244.97214,218.09126 244.97214,218.09126 C 244.97214,218.09126 244.97248,221.15291 244.97248,221.15291 C 244.97248,221.15291 244.06803,221.58752 244.06803,221.58752 C 244.06803,221.58752 244.06669,214.21654 244.06669,214.21654"
       style="font-size:18px;font-style:normal;font-variant:normal;font-weight:bold;font-stretch:normal;text-align:start;line-height:125%;writing-mode:lr-tb;text-anchor:start;fill:#a4a4a4;fill-opacity:1;stroke:none;stroke-width:1px;stroke-linecap:butt;stroke-linejoin:miter;stroke-opacity:1;font-family:DejaVu Sans;-inkscape-font-specification:DejaVu Sans Bold" />
    <text
       sodipodi:linespacing="125%"
       id="text3153"
       y="226.6479"
       x="174.28571"
       style="font-size:94px;font-style:normal;font-variant:normal;font-weight:normal;font-stretch:normal;text-align:start;line-height:125%;writing-mode:lr-tb;text-anchor:start;fill:#000000;fill-opacity:1;stroke:none;stroke-width:1px;stroke-linecap:butt;stroke-linejoin:miter;stroke-opacity:1;font-family:DejaVu Serif;-inkscape-font-specification:DejaVu Serif"
       xml:space="preserve"><tspan
         style="fill:#2e2d2d;fill-opacity:1"
         y="226.6479"
         x="174.28571"
         id="tspan3155"
         sodipodi:role="line">CSRG</tspan></text>
    <text
       sodipodi:linespacing="125%"
       id="text3157"
       y="589.50507"
       x="237.14285"
       style="font-size:94px;font-style:normal;font-variant:normal;font-weight:bold;font-stretch:normal;text-align:start;line-height:125%;writing-mode:lr-tb;text-anchor:start;fill:#000000;fill-opacity:1;stroke:none;stroke-width:1px;stroke-linecap:butt;stroke-linejoin:miter;stroke-opacity:1;font-family:Eddie;-inkscape-font-specification:Sans Bold"
       xml:space="preserve"><tspan
         y="589.50507"
         x="237.14285"
         id="tspan3159"
         sodipodi:role="line" /></text>
    <text
       sodipodi:linespacing="125%"
       id="text3161"
       y="243.07648"
       x="258.57144"
       style="font-size:18px;font-style:normal;font-variant:normal;font-weight:bold;font-stretch:normal;text-align:start;line-height:125%;writing-mode:lr-tb;text-anchor:start;fill:#6f81a4;fill-opacity:1;stroke:none;stroke-width:1px;stroke-linecap:butt;stroke-linejoin:miter;stroke-opacity:1;font-family:DejaVu Sans;-inkscape-font-specification:DejaVu Sans Bold"
       xml:space="preserve"><tspan
         y="243.07648"
         x="258.57144"
         id="tspan3163"
         sodipodi:role="line">Computer Systems</tspan><tspan
         id="tspan3165"
         y="265.57648"
         x="258.57144"
         sodipodi:role="line">     Research Group</tspan></text>
    <text
       sodipodi:linespacing="125%"
       id="text3167"
       y="284.50504"
       x="381.42859"
       style="font-size:18px;font-style:normal;font-variant:normal;font-weight:bold;font-stretch:normal;text-align:start;line-height:125%;writing-mode:lr-tb;text-anchor:start;fill:#2e2d2d;fill-opacity:1;stroke:none;stroke-width:1px;stroke-linecap:butt;stroke-linejoin:miter;stroke-opacity:1;font-family:DejaVu Sans;-inkscape-font-specification:DejaVu Sans Bold"
       xml:space="preserve"><tspan
         y="284.50504"
         x="381.42859"
         id="tspan3169"
         sodipodi:role="line">UTFSM</tspan></text>
  </g>
  <text
     sodipodi:linespacing="125%"
     id="text3599"
     y="272.36218"
     x="97.14286"
     style="font-size:18px;font-style:normal;font-variant:normal;font-weight:bold;font-stretch:normal;text-align:start;line-height:125%;writing-mode:lr-tb;text-anchor:start;fill:#000000;fill-opacity:1;stroke:none;stroke-width:1px;stroke-linecap:butt;stroke-linejoin:miter;stroke-opacity:1;font-family:Eddie;-inkscape-font-specification:Sans"
     xml:space="preserve"><tspan
       y="272.36218"
       x="97.14286"
       id="tspan3601"
       sodipodi:role="line" /></text>
  <text
     sodipodi:linespacing="125%"
     id="text3603"
     y="260.93362"
     x="99.285713"
     style="font-size:18px;font-style:normal;font-variant:normal;font-weight:bold;font-stretch:normal;text-align:start;line-height:125%;writing-mode:lr-tb;text-anchor:start;fill:#000000;fill-opacity:1;stroke:none;stroke-width:1px;stroke-linecap:butt;stroke-linejoin:miter;stroke-opacity:1;font-family:Eddie;-inkscape-font-specification:Sans"
     xml:space="preserve"><tspan
       y="260.93362"
       x="99.285713"
       id="tspan3605"
       sodipodi:role="line" /></text>
  <text
     sodipodi:linespacing="125%"
     id="text3607"
     y="282.36218"
     x="94.285713"
     style="font-size:18px;font-style:normal;font-variant:normal;font-weight:bold;font-stretch:normal;text-align:start;line-height:125%;writing-mode:lr-tb;text-anchor:start;fill:#000000;fill-opacity:1;stroke:none;stroke-width:1px;stroke-linecap:butt;stroke-linejoin:miter;stroke-opacity:1;font-family:Eddie;-inkscape-font-specification:Sans"
     xml:space="preserve"><tspan
       y="282.36218"
       x="94.285713"
       id="tspan3609"
       sodipodi:role="line" /></text>
  <text
     sodipodi:linespacing="125%"
     id="text3613"
     y="271.64789"
     x="91.428574"
     style="font-size:18px;font-style:normal;font-variant:normal;font-weight:bold;font-stretch:normal;text-align:start;line-height:125%;writing-mode:lr-tb;text-anchor:start;fill:#000000;fill-opacity:1;stroke:none;stroke-width:1px;stroke-linecap:butt;stroke-linejoin:miter;stroke-opacity:1;font-family:Eddie;-inkscape-font-specification:Sans"
     xml:space="preserve"><tspan
       y="271.64789"
       x="91.428574"
       id="tspan3615"
       sodipodi:role="line" /></text>
</svg>

